<svg width="21" height="20" viewBox="0 0 21 20" fill="none" xmlns="http://www.w3.org/2000/svg">
<g clip-path="url(#clip0_428_6772)">
<path fill-rule="evenodd" clip-rule="evenodd" d="M10.27 0C4.85738 0 0.469739 4.36176 0.469739 9.74263C0.469739 11.5831 0.983567 13.3045 1.87595 14.773L0.1073 20L5.53311 18.2729C6.93705 19.0448 8.55169 19.4847 10.27 19.4847C15.6822 19.4847 20.0698 15.1232 20.0698 9.74272C20.0699 4.36176 15.6823 0 10.27 0ZM10.27 17.9331C8.59628 17.9331 7.03798 17.4341 5.73689 16.5785L2.57061 17.5866L3.59967 14.5447C2.61336 13.1943 2.03058 11.5351 2.03058 9.74237C2.03058 5.22584 5.72673 1.55144 10.27 1.55144C14.8129 1.55144 18.5092 5.22584 18.5092 9.74237C18.5092 14.2587 14.813 17.9331 10.27 17.9331ZM7.97145 5.71271C7.8127 5.33236 7.6911 5.31947 7.44589 5.30788C7.36178 5.30388 7.27058 5.30005 7.17079 5.30005C6.85487 5.30005 6.5273 5.39254 6.32992 5.5933C6.08969 5.8376 5.48905 6.40982 5.48905 7.58474C5.48905 8.75984 6.34989 9.89531 6.46983 10.0547C6.59012 10.2139 8.14877 12.6605 10.5738 13.6594C12.4666 14.4388 13.0286 14.3694 13.4604 14.2755C14.0888 14.1391 14.8778 13.6791 15.078 13.1217C15.2781 12.5639 15.2781 12.0859 15.2181 11.9866C15.158 11.8868 14.9979 11.8274 14.7577 11.7076C14.5174 11.5882 13.3362 11.0105 13.116 10.931C12.8958 10.8514 12.6922 10.8757 12.5228 11.1085C12.2891 11.4301 12.0643 11.7606 11.8781 11.9566C11.732 12.1104 11.4968 12.1318 11.2946 12.0464C11.0288 11.9338 10.2803 11.6745 9.3626 10.8612C8.64858 10.2284 8.16638 9.44659 8.02621 9.20743C7.88603 8.96861 8.01386 8.82603 8.12188 8.69609C8.24506 8.54776 8.35868 8.44125 8.4788 8.30198C8.59891 8.16245 8.66602 8.08816 8.74609 7.9286C8.82617 7.76939 8.77229 7.60504 8.71219 7.48546C8.652 7.36587 8.17103 6.19112 7.97145 5.71271Z" fill="white"/>
</g>
<defs>
<clipPath id="clip0_428_6772">
<rect width="20" height="20" fill="white" transform="translate(0.083374)"/>
</clipPath>
</defs>
</svg>
